# xmcd
#
# Track frame offsets:
#	151
#	24183
#	45299
#	58922
#	76148
#	93586
#	117762
#	137283
#	151166
#	170216
#	187593
#	208504
#	225852
#	242917
#
# Disc length: 3410 seconds
#
# Revision: 8
# Processed by: cddbd v1.5.1PL0 Copyright (c) Steve Scherf et al.
# Submitted via: EasyCDDAExtractor 8.2.1.1
#
DISCID=9d0d500e
DTITLE=лафымайгс циыяцос - саббато
DYEAR=2003
DGENRE=Vocal
TTITLE0=то GUCCI жояела
TTITLE1=апоье ха с' омеияеуты
TTITLE2=жобеяг
TTITLE3=мийотимг
TTITLE4=ам дем лпояеис
TTITLE5=поу ма паы
TTITLE6=ежуцес
TTITLE7=пяоспоиеисаи
TTITLE8=тессеяис
TTITLE9=саббато
TTITLE10=сам глоума паиди
TTITLE11=етси глоум
TTITLE12=пакиофыг
TTITLE13=OUTRO жобеяос
EXTD=
EXTT0=
EXTT1=
EXTT2=
EXTT3=
EXTT4=
EXTT5=
EXTT6=
EXTT7=
EXTT8=
EXTT9=
EXTT10=
EXTT11=
EXTT12=
EXTT13=
PLAYORDER=
